<svg width="200" height="200" xmlns="http://www.w3.org/2000/svg">
 <!-- Created with Method Draw - http://github.com/duopixel/Method-Draw/ -->
 <g>
  <title>background</title>
  <rect fill="none" id="canvas_background" height="202" width="202" y="-1" x="-1"/>
 </g>
 <g>
  <title>Layer 1</title>
  <g stroke="null" id="svg_11">
   <path fill="#ff6161" stroke="null" id="svg_1" d="m14.60052,75.66818l152.05765,0l-13.92012,13.92011c-3.03168,3.03168 -3.03168,7.94603 0,10.97772c1.51779,1.51778 3.50138,2.27473 5.48886,2.27473s3.97108,-0.75695 5.48886,-2.27473l27.17256,-27.17257c3.03168,-3.03168 3.03168,-7.94603 0,-10.97771l-27.17256,-27.17256c-3.03168,-3.03168 -7.94604,-3.03168 -10.97772,0s-3.03168,7.94603 0,10.97772l13.92012,13.92011l-152.05764,0c-4.28551,0 -7.76359,3.47809 -7.76359,7.76359s3.47809,7.76359 7.76359,7.76359l0,0l-0.00001,0z"/>
   <path fill="#ff6161" stroke="null" id="svg_2" d="m185.39947,122.24971l-152.05764,0l13.92011,-13.92012c3.03168,-3.03168 3.03168,-7.94603 0,-10.97771c-3.0278,-3.03168 -7.94991,-3.03168 -10.97771,0l-27.17256,27.17256c-3.03168,3.03168 -3.03168,7.94603 0,10.97771l27.17256,27.17256c1.5139,1.51779 3.50138,2.27473 5.48885,2.27473s3.97496,-0.75695 5.48886,-2.27473c3.03168,-3.03168 3.03168,-7.94603 0,-10.97771l-13.92011,-13.92012l152.05764,0c4.2855,0 7.76359,-3.47808 7.76359,-7.76358s-3.47809,-7.76359 -7.76359,-7.76359l0,0z"/>
   <path fill="#ff6161" stroke="null" id="svg_3" d="m148.26176,46.08263a6.22477,6.22477 0 0 0 -4.66857,-2.10553a75.04035,75.04035 0 0 1 -24.89907,-4.17916l0,-8.27038a6.22477,6.22477 0 0 0 -6.22477,-6.22476l-24.89907,0a6.22477,6.22477 0 0 0 -6.22477,6.22476l0,8.26961a75.04112,75.04112 0 0 1 -24.89907,4.17993a6.22477,6.22477 0 0 0 -6.17652,6.99663a188.14359,188.14359 0 0 0 5.65131,26.66146c3.9216,13.33267 8.65943,22.79821 14.34575,28.5888c-9.17997,8.13811 -13.82053,20.65456 -13.82053,37.34938l0,6.22477a6.22477,6.22477 0 0 0 6.22476,6.22477l31.12384,0l0,18.6743l12.44953,0l0,-18.6743l31.12384,0a6.22477,6.22477 0 0 0 6.22477,-6.22477l0,-6.22477c0,-16.69482 -4.64057,-29.21127 -13.82054,-37.3486c5.68632,-5.79137 10.42648,-15.25613 14.34575,-28.5888a188.14359,188.14359 0 0 0 5.65131,-26.66146a6.22477,6.22477 0 0 0 -1.50795,-4.89189l0,0.00001z"/>
  </g>
 </g>
</svg>